<?xml version="1.0" encoding="UTF-8"?><svg id="LOGO_INTRODUCTION" xmlns="http://www.w3.org/2000/svg" viewBox="0 0 566.93 566.93"><defs><style>.cls-1{fill:#332727;}</style></defs><path class="cls-1" d="M151.34,151.17v112.05h112.05v-112.05h-112.05ZM236.72,207.2c0,16.21-13.14,29.35-29.35,29.35h0c-16.21,0-29.35-13.14-29.35-29.35v-29.35h9.08v29.35c0,11.19,9.07,20.27,20.27,20.27h0c11.19,0,20.27-9.07,20.27-20.27v-29.35h9.08v29.35Z"/><path class="cls-1" d="M151.34,303.7v112.05h112.05v-112.05h-112.05ZM236.81,339.33h-24.87v49.92h-9.13v-49.92h-24.87v-9.13h58.87v9.13Z"/><path class="cls-1" d="M303.53,303.7v112.05h112.05v-112.05h-112.05ZM389,355.16v34.09h-9.13v-24.96h-40.61v24.96h-9.13v-59.05h9.13v24.96h40.61v-24.96h9.13v24.96Z"/><path class="cls-1" d="M376.45,193.43c-.62-3.79-4.09-6.47-7.94-6.47h-29.26v15.52h29.54c2.15,0,4.08-.87,5.49-2.28,1.67-1.67,2.6-4.13,2.17-6.77Z"/><path class="cls-1" d="M303.53,151.17v112.05h112.05v-112.05h-112.05ZM378.45,236.73l-14.4-24.96h-24.8v24.96h-9.13v-59.05h38.67c4.71,0,8.97,1.91,12.06,4.99,3.08,3.09,4.99,7.35,4.99,12.06,0,7.56-4.93,13.96-11.75,16.19l.49.85,14.41,24.96h-10.55Z"/></svg>