<?xml version="1.0" encoding="UTF-8"?>
<svg xmlns="http://www.w3.org/2000/svg" viewBox="0 0 1095 1095" width="1095" height="1095">
<path d="M541.62 383.44C561.85 382.33 583.63 385.82 602.64 392.81C622.49 400.11 641.79 410.63 657.42 425.07C674.04 440.44 688.21 459.39 697.39 480.13C733.37 561.39 698.62 655.78 619.61 695.1C598.29 705.71 574.26 711.09 550.5 711.63C530.8 712.08 510.94 708.62 492.36 702.18C421.95 677.77 376.33 604.5 384.29 530.53C387.89 497.11 401.47 466.17 422.93 440.4C435.72 425.04 452.31 411.72 470.09 402.59C492.38 391.13 516.62 384.8 541.62 383.44Z" fill="#fc5001" fill-rule="evenodd" stroke="#fc5001" stroke-width="0.25" stroke-linejoin="round"/>
</svg>